<svg xmlns="http://www.w3.org/2000/svg" viewBox="0 0 1000 1000">
    <path d="M872.6 9.2H127.4C62.7 9.2 10 61.8 10 126.6v746.9c0 64.7 52.7 117.4 117.4 117.4h745.2c64.7 0 117.4-52.7 117.4-117.4v-747C990 61.8 937.3 9.2 872.6 9.2zm77.5 864.2c0 42.7-34.8 77.5-77.5 77.5H127.4c-42.7 0-77.5-34.8-77.5-77.5V126.5c0-42.7 34.8-77.5 77.5-77.5h745.2c42.7 0 77.5 34.8 77.5 77.5v746.9z"/>
    <path d="M283.9 204.5v-30.9c0-11-8.9-19.9-19.9-19.9-11 0-19.9 8.9-19.9 19.9v30.9c-47.9 9.4-84.3 51.6-84.3 102.2s36.3 92.9 84.3 102.2V830c0 11 8.9 19.9 19.9 19.9 11 0 19.9-8.9 19.9-19.9V408.9c47.9-9.3 84.3-51.6 84.3-102.2-.1-50.6-36.4-92.8-84.3-102.2zm-20 166.6c-35.5 0-64.3-28.9-64.3-64.3 0-35.5 28.9-64.3 64.3-64.3s64.3 28.9 64.3 64.3-28.8 64.3-64.3 64.3zM523.6 561.9V173.7c0-11-8.9-19.9-19.9-19.9s-19.9 8.9-19.9 19.9v388.2c-47.9 9.3-84.3 51.6-84.3 102.2s36.3 92.9 84.3 102.2v63.8c0 11 8.9 19.9 19.9 19.9s19.9-8.9 19.9-19.9v-63.8c47.9-9.4 84.3-51.6 84.3-102.2s-36.3-92.8-84.3-102.2zm-19.9 166.5c-35.5 0-64.3-28.9-64.3-64.3s28.9-64.3 64.3-64.3c35.5 0 64.3 28.9 64.3 64.3s-28.9 64.3-64.3 64.3zM763.4 306.7v-133c0-11-8.9-19.9-19.9-19.9-11 0-19.9 8.9-19.9 19.9v133c-47.9 9.3-84.3 51.6-84.3 102.2s36.3 92.9 84.3 102.2v319c0 11 8.9 19.9 19.9 19.9 11 0 19.9-8.9 19.9-19.9v-319c47.9-9.3 84.3-51.6 84.3-102.2 0-50.7-36.4-92.9-84.3-102.2zm0 163c-6.3 2.1-12.9 3.5-19.9 3.5-7 0-13.6-1.4-19.9-3.5-25.7-8.5-44.4-32.4-44.4-60.8 0-28.5 18.7-52.4 44.4-60.8 6.3-2.1 12.9-3.5 19.9-3.5 7 0 13.6 1.4 19.9 3.5 25.7 8.5 44.4 32.4 44.4 60.8s-18.8 52.3-44.4 60.8z"/>
</svg>