<svg xmlns="http://www.w3.org/2000/svg" viewBox="0 0 566.9 566.9">
  <defs>
    <clipPath id="a">
      <path fill="none" d="M23.07 11.34H541v256.55H23.07z"/>
    </clipPath>
  </defs>
  <path fill="#fff" d="M0 0h566.9v566.9H0z"/>
  <path fill="#fff" d="M543.69 323.43v201.7a21 21 0 01-20.93 20.93H321.52a21 21 0 01-20.93-20.93v-201.7a21 21 0 0120.93-20.93h201.24a21 21 0 0120.93 20.93zm-50.41 103.85a28.1 28.1 0 000-55.18v-35.93a5.38 5.38 0 00-10.76 0v35.93a28.1 28.1 0 000 55.18v86.15a5.38 5.38 0 1010.76 0zm-42 41.32a28.2 28.2 0 00-22.75-27.6V336.17a5.38 5.38 0 00-10.76 0V441a28.11 28.11 0 000 55.2v17.23a5.38 5.38 0 0010.76 0V496.2a28.23 28.23 0 0022.77-27.6zm-87.52-68.91a28.11 28.11 0 000-55.19v-8.36a5.37 5.37 0 10-10.74 0v8.36a28.11 28.11 0 000 55.19V513.4a5.37 5.37 0 1010.74 0z"/>
  <path d="M554.47 323.43v201.73a31.76 31.76 0 01-31.72 31.7H321.52a31.75 31.75 0 01-31.7-31.7V323.45a31.73 31.73 0 0131.7-31.7h201.24a31.73 31.73 0 0131.71 31.68zm-10.78 201.69V323.43a21 21 0 00-20.93-20.93H321.52a21 21 0 00-20.93 20.93v201.7a21 21 0 0020.93 20.93h201.24a21 21 0 0020.93-20.94z"/>
  <path d="M516.06 399.69a28.16 28.16 0 01-22.77 27.59v86.15a5.38 5.38 0 11-10.76 0v-86.15a28.1 28.1 0 010-55.18v-35.93a5.38 5.38 0 0110.76 0v35.93a28.18 28.18 0 0122.77 27.59zm-10.79 0a17.37 17.37 0 00-12-16.41 15.87 15.87 0 00-10.76 0 17.36 17.36 0 005.39 33.78 17 17 0 005.37-.94 17.44 17.44 0 0012-16.43zM428.52 441a28.11 28.11 0 010 55.2v17.23a5.38 5.38 0 01-10.76 0V496.2a28.11 28.11 0 010-55.2V336.17a5.38 5.38 0 0110.76 0zm12 27.6a17.36 17.36 0 10-17.38 17.4 17.39 17.39 0 0017.37-17.4zM386.55 372.09a28.18 28.18 0 01-22.77 27.59v113.71a5.37 5.37 0 11-10.74 0v-113.7a28.11 28.11 0 010-55.19v-8.36a5.37 5.37 0 1110.74 0v8.36a28.22 28.22 0 0122.77 27.59zm-28.17 17.39A17.36 17.36 0 10341 372.12a17.37 17.37 0 0017.38 17.36z"/>
  <g clip-path="url(#a)">
    <path fill="#00ff84" d="M524.34 267.33a16.49 16.49 0 10-16.67-16.48 16.57 16.57 0 0016.67 16.48zM234.19 44.3a16.48 16.48 0 10-16.67-16.48 16.57 16.57 0 0016.67 16.48z"/>
    <path d="M173.52 148.4L146 109.1v39.3h-28.4V58H146v38.21l28.24-38H208l-34.62 42.66 35.15 47.52zM248.4 58H220v90.4h28.4zm-29 162.39c0-26.94 16.65-47.51 42.84-47.51 13.1 0 23.38 6.18 28.26 15.34v-12.94H319v90.17h-28.47v-12.73c-4.88 9-16.1 15.16-28.63 15.16-26.9.02-42.47-20.38-42.47-47.52zm72.22 0c0-12.91-7.3-23.58-21.52-23.58-13.28 0-21.52 9.92-21.52 23.58s8.22 23.77 21.52 23.77c14.26-.03 21.55-10.7 21.55-23.8zm44.06-45.08h28.63v18.89c3.18-13.47 13.85-20.38 24.89-20.38a27.57 27.57 0 017.48.75l-.15 26.55a59.71 59.71 0 00-8.46-.56c-15.52 0-23.76 10.1-23.76 30.12v34.8h-28.6zm66.8 45.08c0-29.56 19.27-47.51 48.63-47.51 28.08 0 47.15 17.4 47.15 42.84a96.09 96.09 0 01-.75 12.53h-66.58c.55 11.79 8.42 18.15 21.14 18.15 8.79 0 14.4-2.42 16.83-8H497c-2.8 17.77-21 29.57-44.9 29.57-30.7-.07-49.59-17.48-49.59-47.61zm67.54-9.91c-.18-12-6.91-18.34-19.07-18.34-12.35 0-19.83 7.3-20 18.34zm-176.49-88.9V58h-28.59v90.4h69.45v-26.85zm85 0V58H349.9v90.4h69.46v-26.85zM180 175.24v32.48h-34.3v-32.48h-28.1v90.44h28.05v-32H180v32h28v-90.44zm-97.71 36.67l-17.48-4.85c-5.91-1.75-8-4.35-8-8 0-4 3.15-6.36 7.22-6.83 5.91-.69 10.49 1.87 10.49 8.26v.41h30.08v-.41c0-18-15.22-27.94-40.65-27.94-23.18 0-38.5 11.25-38.5 28.32 0 13.68 8.22 22.88 22.61 26.43l18 4.52c5.35 1.69 7.52 4.32 7.5 8.44 0 4.51-4.54 7-9.16 7.27-6.7.3-11.58-3.33-11.94-9.11H23.07c.44 17.25 17.32 29.38 42.59 29.38 23.92 0 39.45-11.06 39.45-29.81-.02-13.71-8.61-22.33-22.82-26.08zm0-117.06L64.81 90c-5.91-1.76-8-4.35-8-8 0-4 3.15-6.37 7.22-6.84C70 74.47 74.56 77 74.56 83.41v.42h30.08v-.42c0-18-15.22-27.94-40.65-27.94-23.18 0-38.5 11.26-38.5 28.33 0 13.68 8.22 22.87 22.61 26.43l18 4.52c5.35 1.69 7.52 4.32 7.5 8.44 0 4.5-4.54 7.05-9.16 7.27-6.7.3-11.58-3.34-11.94-9.11H23.07c.44 17.25 17.32 29.37 42.59 29.37 23.92 0 39.45-11.05 39.45-29.81-.02-13.68-8.61-22.31-22.82-26.06z"/>
  </g>
</svg>