<svg xmlns="http://www.w3.org/2000/svg" viewBox="0 0 566.9 566.9">
    <g>
        <path d="M522.78,291.76H321.54a31.73,31.73,0,0,0-31.71,31.7V525.17a31.76,31.76,0,0,0,31.71,31.71H522.78a31.76,31.76,0,0,0,31.71-31.71V323.44A31.73,31.73,0,0,0,522.78,291.76Zm20.93,233.38a21,21,0,0,1-20.93,20.93H321.54a21,21,0,0,1-20.94-20.93V323.44a21,21,0,0,1,20.94-20.94H522.78a21,21,0,0,1,20.93,20.94v201.7Z"/>
        <path d="M363.8,344.5v-8.35a5.38,5.38,0,0,0-10.75,0v8.35a28.11,28.11,0,0,0,0,55.2V513.42a5.38,5.38,0,1,0,10.75,0V399.7a28.11,28.11,0,0,0,0-55.2Zm-5.4,45a17.37,17.37,0,1,1,17.36-17.37A17.39,17.39,0,0,1,358.4,389.5Z"/>
        <path d="M428.53,441V336.18a5.37,5.37,0,1,0-10.74,0V441a28.11,28.11,0,0,0,0,55.2v17.23a5.37,5.37,0,0,0,10.74,0V496.22a28.11,28.11,0,0,0,0-55.2Zm-5.37,45a17.37,17.37,0,1,1,17.37-17.37A17.4,17.4,0,0,1,423.16,486Z"/>
        <path d="M493.3,372.1V336.18a5.38,5.38,0,0,0-10.75,0V372.1a28.11,28.11,0,0,0,0,55.2v86.15a5.38,5.38,0,0,0,10.75,0V427.3a28.11,28.11,0,0,0,0-55.2Zm0,44a16.62,16.62,0,0,1-5.38.95,16.84,16.84,0,0,1-5.37-.95,17.23,17.23,0,0,1,0-32.83,16.88,16.88,0,0,1,5.37-.94,17.12,17.12,0,0,1,5.38.94,17.23,17.23,0,0,1,0,32.83Z"/>
    </g>
    <g>
        <path d="M163.29,148.77,137.08,111.3v37.47H110V62.53h27.12V99L164,62.77h32.13l-33,40.69,33.53,45.31Z M234.71,62.53H207.59v86.24h27.12ZM207.08,217.41c0-25.7,15.87-45.31,40.86-45.31,12.49,0,22.3,5.89,26.94,14.63V174.41H302v86H274.88V248.27c-4.64,8.56-15.35,14.46-27.29,14.46-25.69,0-40.51-19.44-40.51-45.32Zm68.87,0c0-12.31-7-22.49-20.52-22.49-12.67,0-20.53,9.46-20.53,22.49s7.85,22.67,20.53,22.67C269,240.08,276,229.9,276,217.41Zm42-43h27.3v18c3-12.84,13.21-19.44,23.74-19.44a26.46,26.46,0,0,1,7.14.72L376,199a57.24,57.24,0,0,0-8.06-.53c-14.81,0-22.67,9.63-22.67,28.72v33.19H318Zm63.7,43c0-28.19,18.39-45.31,46.39-45.31,26.77,0,45,16.59,45,40.86a92.06,92.06,0,0,1-.71,11.94H408.79c.53,11.25,8,17.32,20.16,17.32,8.38,0,13.73-2.32,16.05-7.67h26.77c-2.67,16.95-20,28.19-42.82,28.19-29.25,0-47.27-16.59-47.27-45.33ZM446.1,208c-.17-11.43-6.59-17.5-18.19-17.5-11.77,0-18.91,7-19.09,17.5ZM277.78,123.17V62.53h-27.3v86.24h66.24v-25.6Zm81,0V62.53h-27.3v86.24h66.24v-25.6ZM169.43,174.38v31H136.71v-31H110v86.26h26.75V230.08h32.72v30.56H196.2V174.38Zm-93.14,35-16.68-4.62C54,203.05,52,200.58,52,197.08c0-3.82,3-6.07,6.89-6.52,5.64-.65,10,1.79,10,7.88v.39H97.6v-.39h0c0-17.18-14.52-26.65-38.77-26.65-22.11,0-36.72,10.74-36.72,27,0,13,7.84,21.82,21.56,25.21l17.21,4.31C66,229.94,68,232.44,68,236.37c0,4.3-4.33,6.73-8.73,6.93-6.39.29-11-3.17-11.39-8.68H19.81c.41,16.45,16.51,28,40.62,28C83.24,262.63,98,252.09,98,234.2c0-13-8.21-21.28-21.75-24.85Zm0-111.64L59.61,93.09C54,91.41,52,88.94,52,85.44c0-3.82,3-6.07,6.89-6.52,5.64-.65,10,1.79,10,7.88v.4H97.6v-.4h0c0-17.17-14.52-26.65-38.77-26.65-22.11,0-36.72,10.74-36.72,27,0,13.06,7.84,21.82,21.56,25.21l17.21,4.31c5.11,1.62,7.17,4.12,7.15,8,0,4.3-4.33,6.73-8.73,6.94-6.39.28-11-3.18-11.39-8.69H19.81c.41,16.45,16.51,28,40.62,28C83.24,151,98,140.45,98,122.56,98,109.51,89.83,101.29,76.29,97.71Z"/>
        <path d="M497.87,262.2A15.72,15.72,0,1,0,482,246.48,15.81,15.81,0,0,0,497.87,262.2ZM221.15,49.5a15.72,15.72,0,1,0-15.89-15.72A15.8,15.8,0,0,0,221.15,49.5Z"
              fill="#00ff84"/>
    </g>
</svg>
